{
	"asset":{
		"generator":"Khronos glTF Blender I/O v4.3.47",
		"version":"2.0"
	},
	"scene":0,
	"scenes":[
		{
			"name":"Scene",
			"nodes":[
				0,
				1,
				2,
				3,
				4,
				5,
				6,
				7,
				8,
				9,
				10,
				11,
				12,
				13,
				14,
				15,
				16,
				17,
				18,
				19,
				20,
				21,
				22,
				23,
				24,
				25,
				26,
				27,
				28,
				29,
				30,
				31,
				32,
				33,
				34,
				35,
				36,
				37,
				38,
				39,
				40,
				41,
				42,
				43,
				44,
				45,
				46,
				47,
				48,
				49,
				50,
				51,
				52,
				53,
				54,
				55,
				56,
				57,
				58,
				59
			]
		}
	],
	"nodes":[
		{
			"mesh":0,
			"name":"Cube.042",
			"scale":[
				0.919854998588562,
				1.0183982849121094,
				0.8380436301231384
			],
			"translation":[
				-3,
				0.25,
				0
			]
		},
		{
			"mesh":0,
			"name":"Cube.044",
			"scale":[
				0.919854998588562,
				1.0183982849121094,
				0.8380436301231384
			],
			"translation":[
				-3,
				0.25,
				-1
			]
		},
		{
			"mesh":0,
			"name":"Cube.045",
			"scale":[
				0.919854998588562,
				1.0183982849121094,
				0.8380436301231384
			],
			"translation":[
				-3,
				0.25,
				-2
			]
		},
		{
			"mesh":0,
			"name":"Cube.046",
			"scale":[
				0.919854998588562,
				1.0183982849121094,
				0.8380436301231384
			],
			"translation":[
				-3,
				0.75,
				-0.5
			]
		},
		{
			"mesh":0,
			"name":"Cube.047",
			"scale":[
				0.919854998588562,
				1.0183982849121094,
				0.8380436301231384
			],
			"translation":[
				-3,
				0.75,
				-1.5
			]
		},
		{
			"mesh":0,
			"name":"Cube.048",
			"scale":[
				0.919854998588562,
				1.0183982849121094,
				0.8380436301231384
			],
			"translation":[
				-1.9355884790420532,
				1.0766806602478027,
				-2.707551956176758
			]
		},
		{
			"mesh":0,
			"name":"Cube.049",
			"scale":[
				0.919854998588562,
				1.0183982849121094,
				0.8380436301231384
			],
			"translation":[
				-1.9355884790420532,
				1.0766806602478027,
				-3.707551956176758
			]
		},
		{
			"mesh":0,
			"name":"Cube.050",
			"scale":[
				0.919854998588562,
				1.0183982849121094,
				0.8380436301231384
			],
			"translation":[
				-1.9355884790420532,
				1.0766806602478027,
				-4.707551956176758
			]
		},
		{
			"mesh":0,
			"name":"Cube.051",
			"scale":[
				0.919854998588562,
				1.0183982849121094,
				0.8380436301231384
			],
			"translation":[
				-1.9355884790420532,
				1.5766806602478027,
				-3.207551956176758
			]
		},
		{
			"mesh":0,
			"name":"Cube.052",
			"scale":[
				0.919854998588562,
				1.0183982849121094,
				0.8380436301231384
			],
			"translation":[
				-1.9355884790420532,
				1.5766806602478027,
				-4.207551956176758
			]
		},
		{
			"mesh":0,
			"name":"Cube.053",
			"scale":[
				0.919854998588562,
				1.0183982849121094,
				0.8380436301231384
			],
			"translation":[
				-5.428450107574463,
				1.0829864740371704,
				2.6219334602355957
			]
		},
		{
			"mesh":0,
			"name":"Cube.054",
			"scale":[
				0.919854998588562,
				1.0183982849121094,
				0.8380436301231384
			],
			"translation":[
				-5.428450107574463,
				1.0829864740371704,
				1.6219334602355957
			]
		},
		{
			"mesh":0,
			"name":"Cube.055",
			"scale":[
				0.919854998588562,
				1.0183982849121094,
				0.8380436301231384
			],
			"translation":[
				-5.428450107574463,
				1.0829864740371704,
				0.6219334602355957
			]
		},
		{
			"mesh":0,
			"name":"Cube.056",
			"scale":[
				0.919854998588562,
				1.0183982849121094,
				0.8380436301231384
			],
			"translation":[
				-5.428450107574463,
				1.5829864740371704,
				2.1219334602355957
			]
		},
		{
			"mesh":0,
			"name":"Cube.057",
			"scale":[
				0.919854998588562,
				1.0183982849121094,
				0.8380436301231384
			],
			"translation":[
				-5.428450107574463,
				1.5829864740371704,
				1.1219334602355957
			]
		},
		{
			"mesh":0,
			"name":"Cube.058",
			"scale":[
				0.919854998588562,
				1.0183982849121094,
				0.8380436301231384
			],
			"translation":[
				-0.9797182083129883,
				0.7863981127738953,
				-3.788733959197998
			]
		},
		{
			"mesh":0,
			"name":"Cube.059",
			"scale":[
				0.919854998588562,
				1.0183982849121094,
				0.8380436301231384
			],
			"translation":[
				-0.9797182083129883,
				0.7863981127738953,
				-4.788733959197998
			]
		},
		{
			"mesh":0,
			"name":"Cube.060",
			"scale":[
				0.919854998588562,
				1.0183982849121094,
				0.8380436301231384
			],
			"translation":[
				-0.9797182083129883,
				0.7863981127738953,
				-5.788733959197998
			]
		},
		{
			"mesh":0,
			"name":"Cube.061",
			"scale":[
				0.919854998588562,
				1.0183982849121094,
				0.8380436301231384
			],
			"translation":[
				-0.9797182083129883,
				1.28639817237854,
				-4.288733959197998
			]
		},
		{
			"mesh":0,
			"name":"Cube.062",
			"scale":[
				0.919854998588562,
				1.0183982849121094,
				0.8380436301231384
			],
			"translation":[
				-0.9797182083129883,
				1.28639817237854,
				-5.288733959197998
			]
		},
		{
			"mesh":0,
			"name":"Cube.063",
			"scale":[
				0.919854998588562,
				1.0183982849121094,
				0.8380436301231384
			],
			"translation":[
				0.0846933126449585,
				1.6130788326263428,
				-6.496285915374756
			]
		},
		{
			"mesh":0,
			"name":"Cube.064",
			"scale":[
				0.919854998588562,
				1.0183982849121094,
				0.8380436301231384
			],
			"translation":[
				0.0846933126449585,
				1.6130788326263428,
				-7.496285915374756
			]
		},
		{
			"mesh":0,
			"name":"Cube.065",
			"scale":[
				0.919854998588562,
				1.0183982849121094,
				0.8380436301231384
			],
			"translation":[
				0.0846933126449585,
				1.6130788326263428,
				-8.496286392211914
			]
		},
		{
			"mesh":0,
			"name":"Cube.066",
			"scale":[
				0.919854998588562,
				1.0183982849121094,
				0.8380436301231384
			],
			"translation":[
				0.0846933126449585,
				2.1130788326263428,
				-6.996285915374756
			]
		},
		{
			"mesh":0,
			"name":"Cube.067",
			"scale":[
				0.919854998588562,
				1.0183982849121094,
				0.8380436301231384
			],
			"translation":[
				0.0846933126449585,
				2.1130788326263428,
				-7.996285915374756
			]
		},
		{
			"mesh":0,
			"name":"Cube.068",
			"scale":[
				0.919854998588562,
				1.0183982849121094,
				0.8380436301231384
			],
			"translation":[
				-3.408168315887451,
				1.619384527206421,
				-1.1668004989624023
			]
		},
		{
			"mesh":0,
			"name":"Cube.069",
			"scale":[
				0.919854998588562,
				1.0183982849121094,
				0.8380436301231384
			],
			"translation":[
				-3.408168315887451,
				1.619384527206421,
				-2.1668004989624023
			]
		},
		{
			"mesh":0,
			"name":"Cube.070",
			"scale":[
				0.919854998588562,
				1.0183982849121094,
				0.8380436301231384
			],
			"translation":[
				-3.408168315887451,
				1.619384527206421,
				-3.1668004989624023
			]
		},
		{
			"mesh":0,
			"name":"Cube.071",
			"scale":[
				0.919854998588562,
				1.0183982849121094,
				0.8380436301231384
			],
			"translation":[
				-3.408168315887451,
				2.119384527206421,
				-1.6668004989624023
			]
		},
		{
			"mesh":0,
			"name":"Cube.072",
			"scale":[
				0.919854998588562,
				1.0183982849121094,
				0.8380436301231384
			],
			"translation":[
				-3.408168315887451,
				2.119384527206421,
				-2.6668004989624023
			]
		},
		{
			"mesh":0,
			"name":"Cube.073",
			"scale":[
				0.919854998588562,
				1.0183982849121094,
				0.8380436301231384
			],
			"translation":[
				-3.918177604675293,
				0.7043570280075073,
				0.8090424537658691
			]
		},
		{
			"mesh":0,
			"name":"Cube.074",
			"scale":[
				0.919854998588562,
				1.0183982849121094,
				0.8380436301231384
			],
			"translation":[
				-3.918177604675293,
				0.7043570280075073,
				-0.19095754623413086
			]
		},
		{
			"mesh":0,
			"name":"Cube.075",
			"scale":[
				0.919854998588562,
				1.0183982849121094,
				0.8380436301231384
			],
			"translation":[
				-3.918177604675293,
				0.7043570280075073,
				-1.1909575462341309
			]
		},
		{
			"mesh":0,
			"name":"Cube.076",
			"scale":[
				0.919854998588562,
				1.0183982849121094,
				0.8380436301231384
			],
			"translation":[
				-3.918177604675293,
				1.2043570280075073,
				0.30904245376586914
			]
		},
		{
			"mesh":0,
			"name":"Cube.077",
			"scale":[
				0.919854998588562,
				1.0183982849121094,
				0.8380436301231384
			],
			"translation":[
				-3.918177604675293,
				1.2043570280075073,
				-0.6909575462341309
			]
		},
		{
			"mesh":0,
			"name":"Cube.078",
			"scale":[
				0.919854998588562,
				1.0183982849121094,
				0.8380436301231384
			],
			"translation":[
				-2.8537659645080566,
				1.53103768825531,
				-1.8985095024108887
			]
		},
		{
			"mesh":0,
			"name":"Cube.079",
			"scale":[
				0.919854998588562,
				1.0183982849121094,
				0.8380436301231384
			],
			"translation":[
				-2.8537659645080566,
				1.53103768825531,
				-2.8985095024108887
			]
		},
		{
			"mesh":0,
			"name":"Cube.080",
			"scale":[
				0.919854998588562,
				1.0183982849121094,
				0.8380436301231384
			],
			"translation":[
				-2.8537659645080566,
				1.53103768825531,
				-3.898509979248047
			]
		},
		{
			"mesh":0,
			"name":"Cube.081",
			"scale":[
				0.919854998588562,
				1.0183982849121094,
				0.8380436301231384
			],
			"translation":[
				-2.8537659645080566,
				2.0310378074645996,
				-2.3985095024108887
			]
		},
		{
			"mesh":0,
			"name":"Cube.082",
			"scale":[
				0.919854998588562,
				1.0183982849121094,
				0.8380436301231384
			],
			"translation":[
				-2.8537659645080566,
				2.0310378074645996,
				-3.3985095024108887
			]
		},
		{
			"mesh":0,
			"name":"Cube.083",
			"scale":[
				0.919854998588562,
				1.0183982849121094,
				0.8380436301231384
			],
			"translation":[
				-6.346627712249756,
				1.5373433828353882,
				3.430975914001465
			]
		},
		{
			"mesh":0,
			"name":"Cube.084",
			"scale":[
				0.919854998588562,
				1.0183982849121094,
				0.8380436301231384
			],
			"translation":[
				-6.346627712249756,
				1.5373433828353882,
				2.430975914001465
			]
		},
		{
			"mesh":0,
			"name":"Cube.085",
			"scale":[
				0.919854998588562,
				1.0183982849121094,
				0.8380436301231384
			],
			"translation":[
				-6.346627712249756,
				1.5373433828353882,
				1.4309759140014648
			]
		},
		{
			"mesh":0,
			"name":"Cube.086",
			"scale":[
				0.919854998588562,
				1.0183982849121094,
				0.8380436301231384
			],
			"translation":[
				-6.346627712249756,
				2.0373435020446777,
				2.930975914001465
			]
		},
		{
			"mesh":0,
			"name":"Cube.087",
			"scale":[
				0.919854998588562,
				1.0183982849121094,
				0.8380436301231384
			],
			"translation":[
				-6.346627712249756,
				2.0373435020446777,
				1.9309759140014648
			]
		},
		{
			"mesh":0,
			"name":"Cube.088",
			"scale":[
				0.919854998588562,
				1.0183982849121094,
				0.8380436301231384
			],
			"translation":[
				-5.098653793334961,
				0.6601816415786743,
				2.670787811279297
			]
		},
		{
			"mesh":0,
			"name":"Cube.089",
			"scale":[
				0.919854998588562,
				1.0183982849121094,
				0.8380436301231384
			],
			"translation":[
				-5.098653793334961,
				0.6601816415786743,
				1.6707876920700073
			]
		},
		{
			"mesh":0,
			"name":"Cube.090",
			"scale":[
				0.919854998588562,
				1.0183982849121094,
				0.8380436301231384
			],
			"translation":[
				-5.098653793334961,
				0.6601816415786743,
				0.6707876920700073
			]
		},
		{
			"mesh":0,
			"name":"Cube.091",
			"scale":[
				0.919854998588562,
				1.0183982849121094,
				0.8380436301231384
			],
			"translation":[
				-5.098653793334961,
				1.1601816415786743,
				2.170787811279297
			]
		},
		{
			"mesh":0,
			"name":"Cube.092",
			"scale":[
				0.919854998588562,
				1.0183982849121094,
				0.8380436301231384
			],
			"translation":[
				-5.098653793334961,
				1.1601816415786743,
				1.1707876920700073
			]
		},
		{
			"mesh":0,
			"name":"Cube.093",
			"scale":[
				0.919854998588562,
				1.0183982849121094,
				0.8380436301231384
			],
			"translation":[
				-4.034242153167725,
				1.486862301826477,
				-0.03676426410675049
			]
		},
		{
			"mesh":0,
			"name":"Cube.094",
			"scale":[
				0.919854998588562,
				1.0183982849121094,
				0.8380436301231384
			],
			"translation":[
				-4.034242153167725,
				1.486862301826477,
				-1.0367642641067505
			]
		},
		{
			"mesh":0,
			"name":"Cube.095",
			"scale":[
				0.919854998588562,
				1.0183982849121094,
				0.8380436301231384
			],
			"translation":[
				-4.034242153167725,
				1.486862301826477,
				-2.036764621734619
			]
		},
		{
			"mesh":0,
			"name":"Cube.096",
			"scale":[
				0.919854998588562,
				1.0183982849121094,
				0.8380436301231384
			],
			"translation":[
				-4.034242153167725,
				1.9868624210357666,
				-0.5367642641067505
			]
		},
		{
			"mesh":0,
			"name":"Cube.097",
			"scale":[
				0.919854998588562,
				1.0183982849121094,
				0.8380436301231384
			],
			"translation":[
				-4.034242153167725,
				1.9868624210357666,
				-1.5367642641067505
			]
		},
		{
			"mesh":0,
			"name":"Cube.098",
			"scale":[
				0.919854998588562,
				1.0183982849121094,
				0.8380436301231384
			],
			"translation":[
				-7.527103900909424,
				1.4931679964065552,
				5.292721271514893
			]
		},
		{
			"mesh":0,
			"name":"Cube.100",
			"scale":[
				0.919854998588562,
				1.0183982849121094,
				0.8380436301231384
			],
			"translation":[
				-7.527103900909424,
				1.4931679964065552,
				4.292721271514893
			]
		},
		{
			"mesh":0,
			"name":"Cube.101",
			"scale":[
				0.919854998588562,
				1.0183982849121094,
				0.8380436301231384
			],
			"translation":[
				-7.527103900909424,
				1.4931679964065552,
				3.2927212715148926
			]
		},
		{
			"mesh":0,
			"name":"Cube.102",
			"scale":[
				0.919854998588562,
				1.0183982849121094,
				0.8380436301231384
			],
			"translation":[
				-7.527103900909424,
				1.9931681156158447,
				4.792721271514893
			]
		},
		{
			"mesh":0,
			"name":"Cube.103",
			"scale":[
				0.919854998588562,
				1.0183982849121094,
				0.8380436301231384
			],
			"translation":[
				-7.527103900909424,
				1.9931681156158447,
				3.7927212715148926
			]
		}
	],
	"meshes":[
		{
			"name":"Cube.062",
			"primitives":[
				{
					"attributes":{
						"POSITION":0,
						"NORMAL":1
					},
					"indices":2
				}
			]
		}
	],
	"accessors":[
		{
			"bufferView":0,
			"componentType":5126,
			"count":56,
			"max":[
				0.4076729416847229,
				0.24548353254795074,
				0.5966276526451111
			],
			"min":[
				-0.4076729416847229,
				-0.24548353254795074,
				-0.5966276526451111
			],
			"type":"VEC3"
		},
		{
			"bufferView":1,
			"componentType":5126,
			"count":56,
			"type":"VEC3"
		},
		{
			"bufferView":2,
			"componentType":5123,
			"count":324,
			"type":"SCALAR"
		}
	],
	"bufferViews":[
		{
			"buffer":0,
			"byteLength":672,
			"byteOffset":0,
			"target":34962
		},
		{
			"buffer":0,
			"byteLength":672,
			"byteOffset":672,
			"target":34962
		},
		{
			"buffer":0,
			"byteLength":648,
			"byteOffset":1344,
			"target":34963
		}
	],
	"buffers":[
		{
			"byteLength":1992,
			"uri":"bricksWalls.bin"
		}
	]
}
